<svg width="58" height="51" viewBox="0 0 58 51" fill="none" xmlns="http://www.w3.org/2000/svg"><path fill-rule="evenodd" clip-rule="evenodd" d="M13.416 49.494c.52.9 1.482 1.455 2.523 1.455h26.05a2.91 2.91 0 0 0 2.524-1.455L57.54 26.93c.52-.9.52-2.011 0-2.912L44.513 1.458A2.91 2.91 0 0 0 41.99 0H15.94a2.91 2.91 0 0 0-2.524 1.457L.389 24.018a2.92 2.92 0 0 0 0 2.912zm9.235-16.615L16.265 43.94 6.797 27.543h12.772zm3.057 1.765-6.386 11.062h18.95l-6.386-11.062zm9.402-1.473 6.385 11.061 9.636-16.689H38.359zm3.6-9.158h12.772L41.663 7.008l-6.385 11.06zm-4.451-7.71H32.22l6.386-11.061h-19.62l6.386 11.061h-1.704l-1.186 2.055-6.385-11.061-9.651 16.715h12.772l-.845 1.462 5.295-9.17zM31.23 29.401h-4.535l-2.267-3.927 2.267-3.928h4.535l2.267 3.928z" fill="#eb6a00"/></svg>